<svg xmlns="http://www.w3.org/2000/svg" width="1095.818" height="703" viewBox="0 0 1095.818 703">
  <defs>
    <style>
      .epvp {
        fill-rule: evenodd;
      }
    </style>
  </defs>
  <path class="epvp" d="M345,65l4,18h13l23,109H367l12.889,61.217L395,253l14.4,71.032L395,325l55.7,252.789L459,576l24,78-18.394,9.956S459.371,683.833,449,686c-10.652,2.226-26.447-13.255-26.447-13.255l-20.96-2.535L389,591l8.593-1.409L339,330l-94.841-.066s-9.363.868-11.8,11.8c-1.792,8.033,5.9,23.606,5.9,23.606S92.23,355.433,25.81,194.2C-27.346,65.17,49.416,28.967,49.416,28.967S50.238,65.163,61,79c9.852,12.667,35.626,14.881,35.626,14.881l196.446-6.36L289.3,70.08l-12.921-.938s-6.614-2.964-7.736-9.7c-0.983-5.9,4.113-12.538,4.113-12.538l14.927-20.1s10.3-25.383,19.9-26.8c10.765-1.59,26.8,19.9,26.8,19.9l20.1,14.927s6.873,4.871,7.562,10.813C363.569,58.748,356,61,356,61ZM132.034,194.2H309.073l11.8,59.013H196.948s-20.435-10-35.407-23.606C144.226,213.871,132.034,194.2,132.034,194.2ZM764.938,65l-4,18h-13l-23,109h18l-12.89,61.217L714.938,253l-14.4,71.032,14.4,0.968L659.233,577.789,650.938,576l-24,78,18.393,9.956s5.235,19.877,15.607,22.044c10.651,2.226,26.447-13.255,26.447-13.255l20.959-2.535L720.938,591l-8.594-1.409L770.938,330l94.841-.066s9.363,0.868,11.8,11.8c1.792,8.033-5.9,23.606-5.9,23.606s146.03-9.909,212.45-171.138c53.15-129.034-23.61-165.237-23.61-165.237s-0.82,36.2-11.58,50.033c-9.85,12.667-35.63,14.881-35.63,14.881l-196.445-6.36,3.774-17.441,12.92-.938s6.614-2.964,7.736-9.7c0.984-5.9-4.113-12.538-4.113-12.538l-14.926-20.1s-10.3-25.383-19.9-26.8c-10.766-1.59-26.8,19.9-26.8,19.9l-20.1,14.927s-6.874,4.871-7.563,10.813c-1.52,13.1,6.05,15.354,6.05,15.354ZM977.9,194.2H800.864l-11.8,59.013H912.989s20.436-10,35.408-23.606C965.711,213.871,977.9,194.2,977.9,194.2ZM735,21L705,47,597,568l15,20L556,703,500,588l15-20L407,47,377,21,498,4l-5,20,63,244L619,24,614,4Z" transform="translate(-7.063)"/>
</svg>
